<svg width="80" height="80" viewBox="0 0 80 80" fill="none" xmlns="http://www.w3.org/2000/svg">
<path d="M70.0667 16.6667H63.3333V9.93341C63.3333 8.13341 61.8667 6.66675 60.0667 6.66675H59.9667C58.1333 6.66675 56.6667 8.13341 56.6667 9.93341V16.6667H49.9667C48.1667 16.6667 46.7 18.1334 46.6667 19.9334V20.0334C46.6667 21.8667 48.1333 23.3334 49.9667 23.3334H56.6667V30.0334C56.6667 31.8334 58.1333 33.3334 59.9667 33.3001H60.0667C61.8667 33.3001 63.3333 31.8334 63.3333 30.0334V23.3334H70.0667C71.8667 23.3334 73.3333 21.8667 73.3333 20.0667V19.9334C73.3333 18.1334 71.8667 16.6667 70.0667 16.6667ZM53.3333 30.0334V26.6667H49.9667C48.2 26.6667 46.5333 25.9667 45.2667 24.7334C44.0333 23.4667 43.3333 21.8001 43.3333 19.9334C43.3333 18.7334 43.6667 17.6334 44.2333 16.6667H16.6667C13 16.6667 10 19.6667 10 23.3334V63.3334C10 67.0001 13 70.0001 16.6667 70.0001H56.6667C60.3333 70.0001 63.3333 67.0001 63.3333 63.3334V35.7334C62.3333 36.3001 61.2 36.6667 59.9333 36.6667C58.1826 36.6493 56.5089 35.9437 55.274 34.7026C54.0391 33.4614 53.342 31.7843 53.3333 30.0334ZM53.2 63.3334H20C19.6905 63.3334 19.3871 63.2472 19.1238 63.0845C18.8605 62.9218 18.6477 62.6889 18.5093 62.4121C18.3709 62.1353 18.3123 61.8253 18.3401 61.5171C18.3679 61.2088 18.481 60.9144 18.6667 60.6667L25.2667 51.9001C25.9667 50.9667 27.3333 51.0334 28 51.9667L33.3333 60.0001L42.0333 48.4001C42.7 47.5334 44 47.5001 44.6667 48.3667L54.5 60.6334C55.3667 61.7334 54.6 63.3334 53.2 63.3334Z" fill="#C4C4C4"/>
</svg>
