<svg width="24" height="23" viewBox="0 0 24 23" fill="none" xmlns="http://www.w3.org/2000/svg">
<g clip-path="url(#clip0_230_5294)">
<path d="M23.4437 0L13.1455 7.50277L15.0605 3.08114L23.4437 0Z" fill="#E17726"/>
<path d="M0.580078 0.0088501L8.94089 3.08168L10.7593 7.56119L0.580078 0.0088501Z" fill="#E27625"/>
<path d="M19.2992 15.9561L23.8507 16.0414L22.2601 21.3622L16.7061 19.8566L19.2992 15.9561Z" fill="#E27625"/>
<path d="M4.70058 15.9561L7.28395 19.8566L1.7393 21.3623L0.158203 16.0414L4.70058 15.9561Z" fill="#E27625"/>
<path d="M10.5127 6.42017L10.6988 12.3355L5.13281 12.0862L6.71597 9.73438L6.73603 9.71177L10.5127 6.42017Z" fill="#E27625"/>
<path d="M13.43 6.35419L17.2644 9.71197L17.2843 9.73449L18.8675 12.0863L13.3027 12.3355L13.43 6.35419Z" fill="#E27625"/>
<path d="M7.4473 15.9733L10.4865 18.3049L6.95605 19.9831L7.4473 15.9733Z" fill="#E27625"/>
<path d="M16.5531 15.9729L17.0343 19.9832L13.5137 18.3047L16.5531 15.9729Z" fill="#E27625"/>
<path d="M13.5918 18.0851L17.1643 19.7883L13.8412 21.3434L13.8757 20.3156L13.5918 18.0851Z" fill="#D5BFB2"/>
<path d="M10.4074 18.0858L10.1347 20.2988L10.1571 21.3422L6.82617 19.7883L10.4074 18.0858Z" fill="#D5BFB2"/>
<path d="M9.3757 13.1076L10.3093 15.0394L7.13086 14.1226L9.3757 13.1076Z" fill="#233447"/>
<path d="M14.6238 13.1077L16.8792 14.1226L13.6904 15.0391L14.6238 13.1077Z" fill="#233447"/>
<path d="M7.69032 15.9536L7.17657 20.1111L4.42285 16.0445L7.69032 15.9536Z" fill="#CC6228"/>
<path d="M16.3105 15.9536L19.5781 16.0445L16.8141 20.1113L16.3105 15.9536Z" fill="#CC6228"/>
<path d="M18.9479 11.8511L16.5699 14.2374L14.7364 13.4124L13.8586 15.2294L13.2832 12.1049L18.9479 11.8511Z" fill="#CC6228"/>
<path d="M5.05078 11.8511L10.7166 12.105L10.141 15.2294L9.26306 13.4127L7.43934 14.2375L5.05078 11.8511Z" fill="#CC6228"/>
<path d="M4.89062 11.3614L7.58106 14.0495L7.67425 16.7033L4.89062 11.3614Z" fill="#E27525"/>
<path d="M19.1119 11.3566L16.3232 16.708L16.4282 14.0495L19.1119 11.3566Z" fill="#E27525"/>
<path d="M10.5853 11.5251L10.6936 12.1962L10.9612 13.8679L10.7891 19.0026L9.97587 14.8779L9.97559 14.8352L10.5853 11.5251Z" fill="#E27525"/>
<path d="M13.4136 11.5159L14.0249 14.8353L14.0246 14.8779L13.2093 19.013L13.177 17.9787L13.0498 13.8376L13.4136 11.5159Z" fill="#E27525"/>
<path d="M16.668 13.9427L16.5771 16.2483L13.7388 18.4256L13.165 18.0265L13.8082 14.7648L16.668 13.9427Z" fill="#F5841F"/>
<path d="M7.3418 13.9427L10.1918 14.7648L10.8349 18.0265L10.2612 18.4256L7.4228 16.2481L7.3418 13.9427Z" fill="#F5841F"/>
<path d="M6.2832 19.2792L9.91433 20.9732L9.89895 20.2498L10.2027 19.9872H13.7966L14.1114 20.2489L14.0882 20.9717L17.6963 19.2834L15.9406 20.712L13.8176 22.1476H10.1736L8.05208 20.7061L6.2832 19.2792Z" fill="#C0AC9D"/>
<path d="M13.3312 17.8597L13.8446 18.2167L14.1454 20.5802L13.71 20.2182H10.2904L9.86328 20.5875L10.1543 18.2169L10.6678 17.8597H13.3312Z" fill="#161616"/>
<path d="M22.7639 0.207703L24.0001 3.85912L23.228 7.55115L23.7778 7.96866L23.0339 8.52749L23.593 8.95266L22.8526 9.61644L23.3071 9.94053L22.101 11.3275L17.1538 9.90924L17.1109 9.88663L13.5459 6.92558L22.7639 0.207703Z" fill="#763E1A"/>
<path d="M1.23619 0.207703L10.4543 6.92558L6.88912 9.88663L6.84628 9.90924L1.89909 11.3275L0.692813 9.94053L1.14694 9.61672L0.407063 8.95266L0.965062 8.52804L0.21 7.96755L0.780469 7.54976L0 3.8593L1.23619 0.207703Z" fill="#763E1A"/>
<path d="M16.9113 9.59906L22.1531 11.1018L23.8561 16.2697H19.3632L16.2676 16.3081L18.5189 11.9873L16.9113 9.59906Z" fill="#F5841F"/>
<path d="M7.08867 9.59906L5.48076 11.9873L7.73235 16.3081L4.63813 16.2697H0.15332L1.84673 11.1018L7.08867 9.59906Z" fill="#F5841F"/>
<path d="M15.3172 3.05649L13.851 6.95547L13.5399 12.2225L13.4208 13.8735L13.4115 18.0908H10.5885L10.5793 13.8814L10.4598 12.2212L10.1486 6.95547L8.68262 3.0564L15.3172 3.05649Z" fill="#F5841F"/>
</g>
<defs>
<clipPath id="clip0_230_5294">
<rect width="24" height="22.1538" fill="white"/>
</clipPath>
</defs>
</svg>
