<svg width="24" height="24" viewBox="0 0 24 24" fill="none" xmlns="http://www.w3.org/2000/svg">
<path d="M24 12C24 18.6274 18.6274 24 12 24C5.37258 24 0 18.6274 0 12C0 5.37258 5.37258 0 12 0C18.6274 0 24 5.37258 24 12ZM1.75833 12C1.75833 17.6563 6.34368 22.2417 12 22.2417C17.6563 22.2417 22.2417 17.6563 22.2417 12C22.2417 6.34368 17.6563 1.75833 12 1.75833C6.34368 1.75833 1.75833 6.34368 1.75833 12Z" fill="url(#paint0_linear_230_6848)"/>
<rect x="11" y="7" width="2" height="11" rx="1" fill="url(#paint1_linear_230_6848)"/>
<rect x="7" y="9" width="2" height="10" rx="1" transform="rotate(-90 7 9)" fill="url(#paint2_linear_230_6848)"/>
<defs>
<linearGradient id="paint0_linear_230_6848" x1="-9.7202" y1="-25.875" x2="34.5381" y2="-20.5999" gradientUnits="userSpaceOnUse">
<stop stop-color="#00C9FF"/>
<stop offset="1" stop-color="#A892FE"/>
</linearGradient>
<linearGradient id="paint1_linear_230_6848" x1="10.19" y1="-4.85937" x2="13.9288" y2="-4.77835" gradientUnits="userSpaceOnUse">
<stop stop-color="#00C9FF"/>
<stop offset="1" stop-color="#A892FE"/>
</linearGradient>
<linearGradient id="paint2_linear_230_6848" x1="6.18998" y1="-1.78125" x2="9.92845" y2="-1.69213" gradientUnits="userSpaceOnUse">
<stop stop-color="#00C9FF"/>
<stop offset="1" stop-color="#A892FE"/>
</linearGradient>
</defs>
</svg>
